Coordinates
version=1
nRows=22
nColumns=24
inDegrees=yes

Units are S.I. units (second, meters, Newtons, ...)
Angles are in degrees.

endheader
time	pelvis_tilt	pelvis_list	pelvis_rotation	pelvis_tx	pelvis_ty	pelvis_tz	hip_flexion_r	hip_adduction_r	hip_rotation_r	knee_angle_r	ankle_angle_r	subtalar_angle_r	mtp_angle_r	hip_flexion_l	hip_adduction_l	hip_rotation_l	knee_angle_l	ankle_angle_l	subtalar_angle_l	mtp_angle_l	lumbar_extension	lumbar_bending	lumbar_rotation
      1.99500000	     -7.10715021	     -1.73132203	      1.54228733	      0.26454637	      1.23714150	     -0.82255214	     14.43009560	      8.68457134	      2.62314733	    -12.51971771	      3.40042453	     -5.62771827	      3.84895352	     30.37874023	      4.56358908	      0.30410338	    -62.06060524	     -6.48761083	     -0.28361072	     24.83374021	     -4.91116879	      3.62286334	      2.81276091
      2.00000000	     -7.18134865	     -1.60631613	      1.47271911	      0.27009320	      1.23761377	     -0.82215414	     13.90449218	      8.59417695	      2.72819130	    -12.24399523	      3.61522957	     -5.55306973	      3.80776715	     30.97359367	      4.81989591	      0.37693224	    -61.08237996	     -5.78210994	     -0.48940281	     24.66694354	     -4.86459636	      3.45914901	      2.99921120
      2.00500000	     -7.12361815	     -1.46079102	      1.40670361	      0.27571558	      1.23822569	     -0.82173191	     13.18844284	      8.47579463	      2.74711073	    -11.90258089	      3.88892389	     -5.28100844	      3.68962006	     31.35422177	      5.06001409	      0.41237908	    -59.96744432	     -5.09784042	     -0.53045677	     24.10662074	     -4.93454157	      3.25519788	      3.25392857
      2.01000000	     -7.14832779	     -1.34532808	      1.33648291	      0.28134276	      1.23868313	     -0.82130405	     12.58875625	      8.39552473	      2.80119330	    -11.60244951	      4.12955451	     -5.16870481	      3.62521070	     31.81146241	      5.27272614	      0.48172611	    -58.78332724	     -4.43114367	     -0.80545621	     23.75936294	     -4.91254970	      3.07336110	      3.48276259
      2.01500000	     -7.13588384	     -1.22632614	      1.29509979	      0.28693080	      1.23916576	     -0.82098673	     11.92998870	      8.29115782	      2.82927665	    -11.26327975	      4.34488474	     -4.99217211	      3.55465811	     32.19008339	      5.52764542	      0.63615462	    -57.48918262	     -3.86660144	     -1.09788961	     23.28035947	     -4.94089293	      2.90892778	      3.69518557
      2.02000000	     -7.13763678	     -1.12008147	      1.25810993	      0.29256280	      1.23958594	     -0.82067411	     11.28706347	      8.20024545	      2.83273830	    -10.92783082	      4.55845629	     -4.83920872	      3.48973582	     32.55093478	      5.75921840	      0.80135866	    -56.11222102	     -3.32260917	     -1.46196965	     22.78907087	     -4.94131247	      2.74991690	      3.88345180
      2.02500000	     -7.13863454	     -1.02136436	      1.22983398	      0.29821355	      1.23997137	     -0.82039158	     10.63929820	      8.11302374	      2.82117745	    -10.58587546	      4.75886511	     -4.69297424	      3.43110413	     32.87446585	      5.98692960	      1.00498045	    -54.64733595	     -2.82469447	     -1.88362271	     22.28707255	     -4.93760960	      2.59999666	      4.05596322
      2.03000000	     -7.13203129	     -0.93371796	      1.20923489	      0.30387005	      1.24030632	     -0.82013979	      9.98160576	      8.03539343	      2.78524480	    -10.23956698	      4.95870478	     -4.56625476	      3.37491716	     33.15701910	      6.19996825	      1.23252754	    -53.10477662	     -2.35490577	     -2.35431316	     21.77515086	     -4.94047489	      2.46619950	      4.22012188
      2.03500000	     -7.12565470	     -0.85685232	      1.19789829	      0.30954204	      1.24059805	     -0.81993291	      9.32233538	      7.96559748	      2.73879361	     -9.89115611	      5.14751259	     -4.44915811	      3.32410865	     33.40169846	      6.40788106	      1.50695722	    -51.48058149	     -1.91969557	     -2.85168871	     21.25114172	     -4.93744417	      2.34501376	      4.37282954
      2.04000000	     -7.12765773	     -0.78387807	      1.19894085	      0.31522366	      1.24084752	     -0.81976271	      8.67508022	      7.89515069	      2.67155080	     -9.54770565	      5.31529127	     -4.30352462	      3.27494652	     33.61224317	      6.61899962	      1.83084969	    -49.76865557	     -1.53417216	     -3.39060816	     20.64558883	     -4.92188950	      2.23003069	      4.47680632
      2.04500000	     -7.11881326	     -0.72781854	      1.20009581	      0.32088229	      1.24103250	     -0.81964267	      8.02005999	      7.84305994	      2.60677996	     -9.20602438	      5.49002860	     -4.21773708	      3.22350893	     33.78139959	      6.80555954	      2.18153729	    -47.99774109	     -1.15092556	     -3.90524386	     20.10619908	     -4.92688431	      2.14610394	      4.60358862
      2.05000000	     -7.11167129	     -0.68268777	      1.20483266	      0.32653481	      1.24116741	     -0.81954445	      7.37683186	      7.80549101	      2.55294115	     -8.88258462	      5.65409646	     -4.15629732	      3.17300191	     33.90616495	      6.98146838	      2.58691160	    -46.14547324	     -0.77264342	     -4.42282434	     19.58005617	     -4.92668666	      2.07553380	      4.70743575
      2.05500000	     -7.10538808	     -0.64581487	      1.21851089	      0.33219565	      1.24124223	     -0.81948848	      6.73338211	      7.77325727	      2.47388570	     -8.55427258	      5.80520006	     -4.09763980	      3.12276916	     33.99020834	      7.14267567	      3.01961564	    -44.22468987	     -0.43346211	     -4.95002263	     19.00728610	     -4.92670793	      2.02060112	      4.78108355
      2.06000000	     -7.11359787	     -0.61995378	      1.23204876	      0.33785855	      1.24125149	     -0.81946310	      6.11570528	      7.75408543	      2.40052650	     -8.24253305	      5.95051585	     -4.05856676	      3.07522960	     34.04223329	      7.28477652	      3.49001776	    -42.23226322	     -0.10352288	     -5.45519780	     18.42869768	     -4.90987458	      1.98061714	      4.84054967
      2.06500000	     -7.12340098	     -0.60263742	      1.24894423	      0.34353723	      1.24120580	     -0.81946613	      5.50021970	      7.74442821	      2.31851606	     -7.93033891	      6.08611022	     -4.03278873	      3.03121915	     34.04214704	      7.40676077	      3.98955513	    -40.16699849	      0.19429499	     -5.96125957	     17.80574378	     -4.88448918	      1.95614142	      4.88799475
      2.07000000	     -7.17321747	     -0.60820274	      1.26765923	      0.34920517	      1.24103587	     -0.81952341	      4.96024295	      7.75848167	      2.21972347	     -7.67289936	      6.24303545	     -3.98294269	      3.00397805	     34.04503414	      7.50628426	      4.54603738	    -38.06159948	      0.47242300	     -6.49451886	     17.03375633	     -4.82223622	      1.96603079	      4.91044809
      2.07500000	     -7.16396518	     -0.61779764	      1.27281047	      0.35483660	      1.24087823	     -0.81953174	      4.34411945	      7.78812100	      2.20136385	     -7.39159280	      6.35961795	     -4.05784186	      2.94987858	     33.92291950	      7.55422160	      5.09497570	    -35.87032756	      0.78997243	     -6.85017408	     16.54394647	     -4.83130074	      1.97464140	      4.93294728
      2.08000000	     -7.22452042	     -0.65429005	      1.28721721	      0.36048791	      1.24057287	     -0.81962063	      3.82757188	      7.84097455	      2.14050767	     -7.14734344	      6.47823296	     -4.09371800	      2.93073291	     33.84206529	      7.58611217	      5.70546801	    -33.65872914	      0.99807588	     -7.38858332	     15.75720227	     -4.76054894	      2.02281825	      4.93860898
      2.08500000	     -7.23106759	     -0.69782883	      1.28328262	      0.36610182	      1.24025768	     -0.81965059	      3.25676426	      7.91319463	      2.14928475	     -6.91212828	      6.58830106	     -4.20497020	      2.88210154	     33.65661089	      7.55331641	      6.27396968	    -31.39226032	      1.26574185	     -7.69563072	     15.23926924	     -4.75707890	      2.07643787	      4.92459331
      2.09000000	     -7.27736839	     -0.76281586	      1.28082032	      0.37174282	      1.23984018	     -0.81970202	      2.73256517	      8.00823775	      2.16151575	     -6.68122174	      6.66869233	     -4.32502639	      2.84937523	     33.47760825	      7.49024606	      6.87120955	    -29.10327152	      1.43087135	     -8.14074096	     14.53685419	     -4.70291325	      2.15011587	      4.90503562
      2.09500000	     -7.33341901	     -0.85137574	      1.26180522	      0.37735312	      1.23933163	     -0.81975546	      2.25374555	      8.13338705	      2.19388922	     -6.51047562	      6.77284320	     -4.47846817	      2.81995408	     33.29405862	      7.36880263	      7.43152169	    -26.82068740	      1.59242755	     -8.50722594	     13.88382596	     -4.65074415	      2.25901976	      4.87726730
      2.10000000	     -7.40227288	     -0.95717202	      1.23508929	      0.38298251	      1.23874686	     -0.81979183	      1.79064919	      8.28096830	      2.25630051	     -6.34377205	      6.85394687	     -4.65807992	      2.79555888	     33.09999458	      7.20355476	      7.96353325	    -24.53757276	      1.69756893	     -8.88369889	     13.19583547	     -4.57749896	      2.37844849	      4.84950535
